<?xml version="1.0" encoding="utf-8"?>
<!-- Generator: Adobe Illustrator 15.1.0, SVG Export Plug-In . SVG Version: 6.00 Build 0)  -->
<!DOCTYPE svg PUBLIC "-//W3C//DTD SVG 1.1//EN" "http://www.w3.org/Graphics/SVG/1.1/DTD/svg11.dtd">
<svg version="1.1" id="Layer_1" xmlns="http://www.w3.org/2000/svg" xmlns:xlink="http://www.w3.org/1999/xlink" x="0px" y="0px"
	 width="66px" height="53px" viewBox="0 0 66 53" enable-background="new 0 0 66 53" xml:space="preserve">
<g>
	<path fill="#87DB60" d="M12.508,22.983c1.463,6.896,6.198,11.644,11.726,11.644c5.534,0,10.272-4.755,11.73-11.663
		c2.971-1.054,4.693-4.49,4.276-7.228c-0.256-1.682-1.289-2.793-2.75-3.086C37.097,5.61,31.311,0,24.234,0
		C17.289,0,11.58,5.4,10.996,12.253C9.4,12.591,8.3,13.834,8.077,15.689C7.737,18.514,9.458,21.974,12.508,22.983z M24.234,2.498
		c5.954,0,10.797,4.895,10.797,10.911c0,0.21-0.007,0.423-0.022,0.645c-0.833,0.107-1.667,0.161-2.49,0.161h0
		c-4.867,0-9.405-1.898-12.451-5.207c-0.238-0.258-0.572-0.403-0.918-0.403c-0.05,0-0.1,0.003-0.15,0.009
		c-0.398,0.048-0.75,0.285-0.944,0.638c-0.766,1.392-2.752,3.699-4.615,4.419c-0.002-0.088-0.004-0.176-0.004-0.263
		C13.436,7.392,18.28,2.498,24.234,2.498z M10.557,15.988c0.067-0.558,0.25-0.884,0.484-1.079c0.016,0.138,0.025,0.265,0.046,0.411
		c0.086,0.6,0.591,1.051,1.196,1.07l0.142,0.002c2.751,0,5.424-2.563,6.927-4.58c3.457,3.13,8.167,4.899,13.166,4.899h0
		c1.272,0,2.565-0.114,3.843-0.34c0.531-0.094,0.942-0.518,1.019-1.052c0.002-0.016,0.003-0.029,0.005-0.045
		c0.181,0.157,0.32,0.413,0.385,0.839c0.239,1.569-0.88,4.212-3.113,4.623c-0.515,0.094-0.917,0.501-1.005,1.017
		c-1.028,6.013-4.99,10.376-9.419,10.376c-4.429,0-8.391-4.364-9.419-10.376c-0.09-0.525-0.504-0.937-1.031-1.021
		C11.509,20.364,10.353,17.677,10.557,15.988z"/>
	<path fill="#87DB60" d="M35.449,35.227c-0.467-0.229-0.896-0.44-1.277-0.643c-0.326-0.175-0.711-0.196-1.054-0.059
		c-0.343,0.137-0.607,0.419-0.723,0.77c-1.33,4.061-5.61,5.535-8.162,5.535c-2.551,0-6.831-1.474-8.162-5.535
		c-0.115-0.351-0.379-0.633-0.722-0.77c-0.343-0.138-0.729-0.117-1.054,0.059c-0.38,0.203-0.81,0.414-1.276,0.643
		C9.06,37.17,2.434,40.422,0.032,50.919c-0.154,0.672,0.266,1.342,0.938,1.496c0.67,0.152,1.342-0.266,1.496-0.938
		c2.137-9.336,7.864-12.147,11.653-14.007c0.043-0.021,0.087-0.042,0.13-0.063c1.965,3.894,6.328,5.922,9.985,5.922
		c3.658,0,8.021-2.029,9.985-5.922c0.043,0.021,0.086,0.042,0.13,0.063c3.79,1.86,9.517,4.671,11.654,14.007
		c0.132,0.579,0.646,0.971,1.216,0.971c0.092,0,0.186-0.011,0.28-0.032c0.672-0.153,1.092-0.823,0.938-1.496
		C46.035,40.422,39.408,37.17,35.449,35.227z"/>
	<path fill="#87DB60" d="M61.661,7.087H44.052c-0.69,0-1.249,0.559-1.249,1.249c0,0.689,0.559,1.249,1.249,1.249h17.609
		c1.016,0,1.842,0.827,1.842,1.844v30.346c0,1.016-0.826,1.843-1.842,1.843h-8.63c-0.69,0-1.249,0.559-1.249,1.249
		s0.559,1.249,1.249,1.249h8.63c2.393,0,4.339-1.947,4.339-4.34V11.429C66,9.035,64.053,7.087,61.661,7.087z"/>
	<path fill="#87DB60" d="M45.848,16.958h12.618c0.689,0,1.249-0.559,1.249-1.249c0-0.689-0.559-1.249-1.249-1.249H45.848
		c-0.69,0-1.249,0.559-1.249,1.249C44.599,16.399,45.158,16.958,45.848,16.958z"/>
	<path fill="#87DB60" d="M45.848,24.317h12.618c0.689,0,1.249-0.559,1.249-1.249c0-0.69-0.559-1.249-1.249-1.249H45.848
		c-0.69,0-1.249,0.559-1.249,1.249C44.599,23.758,45.158,24.317,45.848,24.317z"/>
	<path fill="#87DB60" d="M45.848,31.676h12.618c0.689,0,1.249-0.559,1.249-1.249c0-0.689-0.559-1.249-1.249-1.249H45.848
		c-0.69,0-1.249,0.559-1.249,1.249C44.599,31.117,45.158,31.676,45.848,31.676z"/>
	<path fill="#87DB60" d="M59.714,37.785c0-0.69-0.559-1.249-1.249-1.249h-8.128c-0.69,0-1.249,0.559-1.249,1.249
		c0,0.689,0.559,1.249,1.249,1.249h8.128C59.155,39.033,59.714,38.474,59.714,37.785z"/>
</g>
</svg>
