<?xml version="1.0" encoding="utf-8"?>
<!-- Generator: Adobe Illustrator 15.1.0, SVG Export Plug-In . SVG Version: 6.00 Build 0)  -->
<!DOCTYPE svg PUBLIC "-//W3C//DTD SVG 1.1//EN" "http://www.w3.org/Graphics/SVG/1.1/DTD/svg11.dtd">
<svg version="1.1" id="Layer_1" xmlns="http://www.w3.org/2000/svg" xmlns:xlink="http://www.w3.org/1999/xlink" x="0px" y="0px"
	 width="70px" height="40px" viewBox="0 0 70 40" enable-background="new 0 0 70 40" xml:space="preserve">
<g>
	<path fill="#87DB60" d="M38.304,14.536c0.607,0,1.1-0.493,1.1-1.1v-2.829h1.989c2.691,0,4.88-2.189,4.88-4.88
		c0-2.692-2.189-4.882-4.88-4.882h-3.089c-0.607,0-1.1,0.493-1.1,1.1v11.491C37.204,14.043,37.696,14.536,38.304,14.536z
		 M39.404,3.044h1.989c1.478,0,2.68,1.203,2.68,2.682c0,1.478-1.202,2.68-2.68,2.68h-1.989V3.044z"/>
	<path fill="#87DB60" d="M61.612,14.536h3.907c2.405,0,4.362-1.957,4.362-4.361c0-2.406-1.957-4.363-4.362-4.363h-2.807V3.044h4.912
		c0.607,0,1.1-0.493,1.1-1.1s-0.493-1.1-1.1-1.1h-6.012c-0.607,0-1.1,0.493-1.1,1.1v11.491
		C60.512,14.043,61.005,14.536,61.612,14.536z M62.712,8.012h2.807c1.192,0,2.162,0.97,2.162,2.163c0,1.191-0.97,2.161-2.162,2.161
		h-2.807V8.012z"/>
	<path fill="#87DB60" d="M51.887,9.757l-1.72,3.151c-0.292,0.533-0.095,1.201,0.438,1.492c0.167,0.091,0.348,0.135,0.526,0.135
		c0.39,0,0.767-0.207,0.966-0.573l6.273-11.491c0.292-0.533,0.095-1.201-0.438-1.492c-0.533-0.292-1.201-0.096-1.492,0.438
		L53.12,7.5l-3.545-6.107c-0.306-0.526-0.979-0.706-1.503-0.399c-0.525,0.305-0.704,0.978-0.399,1.503L51.887,9.757z"/>
	<path fill="#87DB60" d="M14.563,0C7.522,0,0,5.097,0,19.401c0,14.305,7.524,19.402,14.565,19.402
		c7.041,0,14.563-5.097,14.563-19.402C29.129,5.097,21.604,0,14.563,0z M14.565,36.304C7.123,36.304,2.5,29.827,2.5,19.401
		C2.5,8.976,7.122,2.5,14.563,2.5c7.443,0,12.066,6.476,12.066,16.901C26.629,29.827,22.006,36.304,14.565,36.304z"/>
	<path fill="#87DB60" d="M68.781,18.86H38.048c-0.607,0-1.1,0.493-1.1,1.1s0.493,1.1,1.1,1.1h30.733c0.607,0,1.1-0.493,1.1-1.1
		S69.389,18.86,68.781,18.86z"/>
</g>
</svg>
