<?xml version="1.0" encoding="utf-8"?>
<!-- Generator: Adobe Illustrator 15.1.0, SVG Export Plug-In . SVG Version: 6.00 Build 0)  -->
<!DOCTYPE svg PUBLIC "-//W3C//DTD SVG 1.1//EN" "http://www.w3.org/Graphics/SVG/1.1/DTD/svg11.dtd">
<svg version="1.1" id="Layer_1" xmlns="http://www.w3.org/2000/svg" xmlns:xlink="http://www.w3.org/1999/xlink" x="0px" y="0px"
	 width="73px" height="63px" viewBox="0 0 73 63" enable-background="new 0 0 73 63" xml:space="preserve">
<g>
	<path fill="#87DB60" d="M49.893,0H23.467c-2.895,0-5.25,2.355-5.25,5.25v51.843c0,2.895,2.355,5.25,5.25,5.25h26.426
		c2.895,0,5.25-2.355,5.25-5.25V5.25C55.143,2.355,52.788,0,49.893,0z M20.717,11.364h31.926v35.098H20.717V11.364z M23.467,2.5
		h26.426c1.516,0,2.75,1.233,2.75,2.75v3.614H20.717V5.25C20.717,3.733,21.951,2.5,23.467,2.5z M49.893,59.843H23.467
		c-1.516,0-2.75-1.233-2.75-2.75v-8.131h31.926v8.131C52.643,58.609,51.409,59.843,49.893,59.843z"/>
	<path fill="#87DB60" d="M4.692,8.079h9.611c0.69,0,1.25-0.56,1.25-1.25s-0.56-1.25-1.25-1.25H4.692C2.105,5.579,0,7.685,0,10.272
		V52.07c0,2.588,2.105,4.693,4.692,4.693h9.611c0.69,0,1.25-0.56,1.25-1.25s-0.56-1.25-1.25-1.25H4.692
		c-1.209,0-2.192-0.984-2.192-2.193v-6.193h11.804c0.69,0,1.25-0.56,1.25-1.25s-0.56-1.25-1.25-1.25H2.5V15.292h11.804
		c0.69,0,1.25-0.56,1.25-1.25s-0.56-1.25-1.25-1.25H2.5v-2.519C2.5,9.063,3.483,8.079,4.692,8.079z"/>
	<path fill="#87DB60" d="M67.807,5.579h-9.611c-0.69,0-1.25,0.56-1.25,1.25s0.56,1.25,1.25,1.25h9.611
		c1.209,0,2.193,0.984,2.193,2.193v2.519H58.196c-0.69,0-1.25,0.56-1.25,1.25s0.56,1.25,1.25,1.25H70v28.085H58.196
		c-0.69,0-1.25,0.56-1.25,1.25s0.56,1.25,1.25,1.25H70v6.193c0,1.209-0.984,2.193-2.193,2.193h-9.611c-0.69,0-1.25,0.56-1.25,1.25
		s0.56,1.25,1.25,1.25h9.611c2.588,0,4.693-2.105,4.693-4.693V10.272C72.5,7.685,70.395,5.579,67.807,5.579z"/>
	<path fill="#87DB60" d="M33.309,6.803h6.742c0.69,0,1.25-0.56,1.25-1.25s-0.56-1.25-1.25-1.25h-6.742c-0.69,0-1.25,0.56-1.25,1.25
		S32.618,6.803,33.309,6.803z"/>
	<path fill="#87DB60" d="M36.68,49.985c-2.325,0-4.217,1.892-4.217,4.216c0,2.326,1.892,4.219,4.217,4.219s4.217-1.893,4.217-4.219
		C40.897,51.876,39.005,49.985,36.68,49.985z M36.68,55.92c-0.947,0-1.717-0.771-1.717-1.719c0-0.946,0.771-1.716,1.717-1.716
		s1.717,0.77,1.717,1.716C38.397,55.149,37.627,55.92,36.68,55.92z"/>
</g>
</svg>
