<?xml version="1.0" encoding="utf-8"?>
<!-- Generator: Adobe Illustrator 15.1.0, SVG Export Plug-In . SVG Version: 6.00 Build 0)  -->
<!DOCTYPE svg PUBLIC "-//W3C//DTD SVG 1.1//EN" "http://www.w3.org/Graphics/SVG/1.1/DTD/svg11.dtd">
<svg version="1.1" id="Layer_1" xmlns="http://www.w3.org/2000/svg" xmlns:xlink="http://www.w3.org/1999/xlink" x="0px" y="0px"
	 width="54px" height="43px" viewBox="0 0 54 43" enable-background="new 0 0 54 43" xml:space="preserve">
<g>
	<g>
		<path fill="#87DB60" d="M52.708,6.75H1.25C0.56,6.75,0,6.19,0,5.5s0.56-1.25,1.25-1.25h51.458c0.69,0,1.25,0.56,1.25,1.25
			S53.398,6.75,52.708,6.75z"/>
	</g>
	<g>
		<path fill="#87DB60" d="M52.708,22.75H1.25C0.56,22.75,0,22.19,0,21.5s0.56-1.25,1.25-1.25h51.458c0.69,0,1.25,0.56,1.25,1.25
			S53.398,22.75,52.708,22.75z"/>
	</g>
	<g>
		<path fill="#87DB60" d="M52.708,38.75H1.25C0.56,38.75,0,38.19,0,37.5s0.56-1.25,1.25-1.25h51.458c0.69,0,1.25,0.56,1.25,1.25
			S53.398,38.75,52.708,38.75z"/>
	</g>
	<g>
		<circle fill="#FFFFFF" cx="11.641" cy="5.5" r="4.25"/>
		<path fill="#87DB60" d="M11.641,11c-3.033,0-5.5-2.467-5.5-5.5S8.608,0,11.641,0s5.5,2.467,5.5,5.5S14.673,11,11.641,11z
			 M11.641,2.5c-1.654,0-3,1.346-3,3s1.346,3,3,3s3-1.346,3-3S13.295,2.5,11.641,2.5z"/>
	</g>
	<g>
		<circle fill="#FFFFFF" cx="40.641" cy="21.5" r="4.25"/>
		<path fill="#87DB60" d="M40.641,27c-3.033,0-5.5-2.467-5.5-5.5s2.467-5.5,5.5-5.5s5.5,2.467,5.5,5.5S43.673,27,40.641,27z
			 M40.641,18.5c-1.654,0-3,1.346-3,3s1.346,3,3,3s3-1.346,3-3S42.295,18.5,40.641,18.5z"/>
	</g>
	<g>
		<circle fill="#FFFFFF" cx="22.729" cy="37.5" r="4.25"/>
		<path fill="#87DB60" d="M22.729,43c-3.033,0-5.5-2.467-5.5-5.5s2.467-5.5,5.5-5.5s5.5,2.467,5.5,5.5S25.762,43,22.729,43z
			 M22.729,34.5c-1.654,0-3,1.346-3,3s1.346,3,3,3s3-1.346,3-3S24.384,34.5,22.729,34.5z"/>
	</g>
</g>
</svg>
