<?xml version="1.0" encoding="utf-8"?>
<!-- Generator: Adobe Illustrator 15.1.0, SVG Export Plug-In . SVG Version: 6.00 Build 0)  -->
<!DOCTYPE svg PUBLIC "-//W3C//DTD SVG 1.1//EN" "http://www.w3.org/Graphics/SVG/1.1/DTD/svg11.dtd">
<svg version="1.1" id="Layer_1" xmlns="http://www.w3.org/2000/svg" xmlns:xlink="http://www.w3.org/1999/xlink" x="0px" y="0px"
	 width="54px" height="54px" viewBox="0 0 54 54" enable-background="new 0 0 54 54" xml:space="preserve">
<g>
	<path fill="#87DB60" d="M37.681,35.951c-1.833-1.833-4.452-1.762-6.292,0.078l-3.616,3.617c-2.364-0.802-5.617-2.964-8.034-5.38
		c-2.416-2.417-4.579-5.669-5.38-8.033l3.617-3.617c0.826-0.826,1.335-1.839,1.434-2.853c0.084-0.865-0.083-2.165-1.357-3.439
		l-6.594-6.594C9.713,7.983,6.961,8.011,5.167,9.806l-2.093,2.092c-1.838,1.839-2.505,3.355-2.643,6.01
		c-0.517,9.99,6.781,20.093,11.175,24.488c5.575,5.576,15.001,11.202,23.492,11.202c0.333,0,0.665-0.008,0.996-0.025
		c2.654-0.137,4.171-0.804,6.011-2.643l2.093-2.093c1.843-1.844,1.875-4.49,0.076-6.292L37.681,35.951z M42.43,47.069l-2.092,2.093
		c-1.398,1.397-2.338,1.809-4.372,1.914c-8.023,0.433-17.186-5.042-22.591-10.447C8.056,35.308,2.519,25.969,2.929,18.037
		c0.105-2.035,0.517-2.974,1.913-4.371l2.093-2.092c0.444-0.444,0.942-0.679,1.441-0.679c0.466,0,0.921,0.208,1.314,0.602
		l6.594,6.594c1.107,1.108,0.57,2.11-0.077,2.757l-4.14,4.141c-0.309,0.309-0.434,0.755-0.331,1.179
		c0.802,3.297,3.793,7.425,6.234,9.866c2.441,2.44,6.569,5.431,9.866,6.233c0.422,0.103,0.87-0.022,1.179-0.331l4.14-4.14
		c0.27-0.269,0.817-0.72,1.463-0.72c0.432,0,0.868,0.216,1.293,0.642l6.593,6.594C43.332,45.139,43.303,46.195,42.43,47.069z"/>
	<path fill="#87DB60" d="M24.781,7.693c-0.676,0.142-1.109,0.804-0.967,1.48c0.142,0.676,0.807,1.11,1.48,0.967
		c5.205-1.091,10.556,0.5,14.313,4.256c3.688,3.688,5.297,8.952,4.305,14.08c-0.131,0.678,0.312,1.334,0.989,1.465
		c0.081,0.016,0.16,0.023,0.239,0.023c0.586,0,1.11-0.415,1.226-1.012c1.151-5.944-0.715-12.046-4.991-16.323
		C37.018,8.273,30.815,6.43,24.781,7.693z"/>
	<path fill="#87DB60" d="M46.25,7.75c-6.001-6.002-14.553-8.547-22.874-6.813c-0.676,0.141-1.109,0.803-0.968,1.479
		c0.142,0.676,0.805,1.112,1.479,0.968c7.492-1.563,15.192,0.73,20.596,6.133c5.267,5.267,7.595,12.789,6.227,20.121
		c-0.126,0.679,0.321,1.331,1,1.458c0.077,0.014,0.154,0.021,0.23,0.021c0.59,0,1.115-0.419,1.228-1.021
		C54.687,21.953,52.101,13.599,46.25,7.75z"/>
	<path fill="#87DB60" d="M37.691,28.538c0.081,0.016,0.16,0.023,0.239,0.023c0.586,0,1.11-0.415,1.226-1.012
		c0.687-3.542-0.426-7.179-2.974-9.727c-2.599-2.6-6.303-3.699-9.906-2.939c-0.676,0.143-1.108,0.806-0.965,1.481
		c0.142,0.675,0.804,1.104,1.481,0.965c2.773-0.585,5.623,0.26,7.623,2.26c1.961,1.96,2.816,4.758,2.288,7.484
		C36.571,27.751,37.014,28.407,37.691,28.538z"/>
</g>
</svg>
