<?xml version="1.0" encoding="utf-8"?>
<!-- Generator: Adobe Illustrator 15.1.0, SVG Export Plug-In . SVG Version: 6.00 Build 0)  -->
<!DOCTYPE svg PUBLIC "-//W3C//DTD SVG 1.1//EN" "http://www.w3.org/Graphics/SVG/1.1/DTD/svg11.dtd">
<svg version="1.1" id="Layer_1" xmlns="http://www.w3.org/2000/svg" xmlns:xlink="http://www.w3.org/1999/xlink" x="0px" y="0px"
	 width="63px" height="52px" viewBox="0 0 63 52" enable-background="new 0 0 63 52" xml:space="preserve">
<g>
	<path fill="#87DB60" d="M61.749,4.5H50.227V1.562c0-0.688-0.561-1.249-1.25-1.249c-0.688,0-1.25,0.561-1.25,1.249V4.5H14.773V1.562
		c0-0.688-0.56-1.249-1.25-1.249s-1.25,0.561-1.25,1.249V4.5H1.25C0.56,4.5,0,5.061,0,5.75v45C0,51.439,0.56,52,1.25,52h60.5
		c0.689,0,1.25-0.561,1.25-1.25v-45C62.999,5.061,62.439,4.5,61.749,4.5z M60.499,49.5h-58V7h9.773v2.563
		c0,0.688,0.56,1.25,1.25,1.25s1.25-0.562,1.25-1.25V7h32.953v2.563c0,0.688,0.563,1.25,1.25,1.25c0.69,0,1.25-0.562,1.25-1.25V7
		h10.274V49.5L60.499,49.5z"/>
	<path fill="#87DB60" d="M18.796,14.697H8.249c-0.69,0-1.25,0.561-1.25,1.25v9.487c0,0.689,0.56,1.25,1.25,1.25h10.547
		c0.69,0,1.25-0.561,1.25-1.25v-9.487C20.046,15.258,19.486,14.697,18.796,14.697z M17.546,24.188H9.499V17.2h8.047V24.188z"/>
	<path fill="#87DB60" d="M18.796,32.438H8.249c-0.69,0-1.25,0.561-1.25,1.25v9.487c0,0.689,0.56,1.25,1.25,1.25h10.547
		c0.69,0,1.25-0.561,1.25-1.25v-9.487C20.046,32.996,19.486,32.438,18.796,32.438z M17.546,41.926H9.499v-6.987h8.047V41.926z"/>
	<path fill="#87DB60" d="M43.702,14.697c-0.69,0-1.25,0.561-1.25,1.25v9.487c0,0.689,0.56,1.25,1.25,1.25h10.547
		c0.69,0,1.25-0.561,1.25-1.25v-9.487c0-0.689-0.56-1.25-1.25-1.25H43.702z M52.999,24.188h-8.047V17.2h8.047V24.188z"/>
	<path fill="#87DB60" d="M54.249,32.438H43.702c-0.69,0-1.25,0.561-1.25,1.25v9.487c0,0.689,0.56,1.25,1.25,1.25h10.547
		c0.69,0,1.25-0.561,1.25-1.25v-9.487C55.499,32.996,54.939,32.438,54.249,32.438z M52.999,41.926h-8.047v-6.987h8.047V41.926z"/>
	<path fill="#87DB60" d="M36.521,14.697H25.975c-0.69,0-1.25,0.561-1.25,1.25v9.487c0,0.689,0.56,1.25,1.25,1.25h10.546
		c0.688,0,1.25-0.561,1.25-1.25v-9.487C37.771,15.258,37.213,14.697,36.521,14.697z M35.271,24.188h-8.046V17.2h8.046V24.188z"/>
	<path fill="#87DB60" d="M36.521,32.438H25.975c-0.69,0-1.25,0.561-1.25,1.25v9.487c0,0.689,0.56,1.25,1.25,1.25h10.546
		c0.688,0,1.25-0.561,1.25-1.25v-9.487C37.771,32.996,37.213,32.438,36.521,32.438z M35.271,41.926h-8.046v-6.987h8.046V41.926z"/>
</g>
</svg>
