<?xml version="1.0" encoding="utf-8"?>
<!-- Generator: Adobe Illustrator 15.1.0, SVG Export Plug-In . SVG Version: 6.00 Build 0)  -->
<!DOCTYPE svg PUBLIC "-//W3C//DTD SVG 1.1//EN" "http://www.w3.org/Graphics/SVG/1.1/DTD/svg11.dtd">
<svg version="1.1" id="Layer_1" xmlns="http://www.w3.org/2000/svg" xmlns:xlink="http://www.w3.org/1999/xlink" x="0px" y="0px"
	 width="78px" height="47px" viewBox="0 0 78 47" enable-background="new 0 0 78 47" xml:space="preserve">
<g>
	<path fill="#87DB60" d="M76.25,0c-6.534,0-8.26,5.49-8.26,8.393v14.404c0,0.69,0.56,1.25,1.25,1.25H75v20.325
		c0,0.69,0.56,1.25,1.25,1.25s1.25-0.56,1.25-1.25V1.25C77.5,0.56,76.94,0,76.25,0z M75,21.547h-4.51V8.393
		c0-0.222,0.056-5.031,4.51-5.792V21.547z"/>
	<path fill="#87DB60" d="M15.271,0c-0.69,0-1.25,0.56-1.25,1.25v11.904c0,3.177-2.584,5.762-5.761,5.762S2.5,16.331,2.5,13.154V1.25
		C2.5,0.56,1.94,0,1.25,0S0,0.56,0,1.25v11.904c0,4.13,3.048,7.551,7.011,8.157v23.061c0,0.69,0.56,1.25,1.25,1.25
		s1.25-0.56,1.25-1.25V21.311c3.962-0.605,7.011-4.027,7.011-8.157V1.25C16.521,0.56,15.962,0,15.271,0z"/>
	<path fill="#87DB60" d="M5.924,13.611c0.69,0,1.25-0.56,1.25-1.25V1.25c0-0.69-0.56-1.25-1.25-1.25s-1.25,0.56-1.25,1.25v11.111
		C4.674,13.051,5.233,13.611,5.924,13.611z"/>
	<path fill="#87DB60" d="M10.597,13.611c0.69,0,1.25-0.56,1.25-1.25V1.25c0-0.69-0.56-1.25-1.25-1.25s-1.25,0.56-1.25,1.25v11.111
		C9.347,13.051,9.907,13.611,10.597,13.611z"/>
	<path fill="#87DB60" d="M41.197,1.588c-12.432,0-22.545,10.114-22.545,22.545c0,12.433,10.114,22.547,22.545,22.547
		c12.433,0,22.547-10.115,22.547-22.547C63.744,11.702,53.629,1.588,41.197,1.588z M41.197,44.18
		c-11.053,0-20.045-8.993-20.045-20.047c0-11.053,8.992-20.045,20.045-20.045c11.054,0,20.047,8.992,20.047,20.045
		C61.244,35.187,52.25,44.18,41.197,44.18z"/>
	<path fill="#87DB60" d="M41.197,11.459c-6.988,0-12.674,5.685-12.674,12.673c0,6.989,5.686,12.675,12.674,12.675
		c6.989,0,12.674-5.686,12.674-12.675C53.871,17.145,48.186,11.459,41.197,11.459z M41.197,34.308
		c-5.61,0-10.174-4.564-10.174-10.175c0-5.609,4.564-10.173,10.174-10.173c5.61,0,10.174,4.564,10.174,10.173
		C51.371,29.744,46.807,34.308,41.197,34.308z"/>
</g>
</svg>
