<?xml version="1.0" encoding="utf-8"?>
<!-- Generator: Adobe Illustrator 15.1.0, SVG Export Plug-In . SVG Version: 6.00 Build 0)  -->
<!DOCTYPE svg PUBLIC "-//W3C//DTD SVG 1.1//EN" "http://www.w3.org/Graphics/SVG/1.1/DTD/svg11.dtd">
<svg version="1.1" id="Layer_1" xmlns="http://www.w3.org/2000/svg" xmlns:xlink="http://www.w3.org/1999/xlink" x="0px" y="0px"
	 width="50px" height="50px" viewBox="0 0 50 50" enable-background="new 0 0 50 50" xml:space="preserve">
<g>
	<path fill="#87DB60" d="M25,0.75C11.628,0.75,0.75,11.628,0.75,25c0,0.69,0.56,1.25,1.25,1.25S3.25,25.69,3.25,25
		C3.25,13.007,13.007,3.25,25,3.25c11.993,0,21.75,9.757,21.75,21.75S36.993,46.75,25,46.75c-0.69,0-1.25,0.56-1.25,1.25
		s0.56,1.25,1.25,1.25c13.372,0,24.25-10.878,24.25-24.25S38.371,0.75,25,0.75z"/>
	<path fill="#87DB60" d="M25,7.995c-0.69,0-1.25,0.56-1.25,1.25V25c0,0.69,0.56,1.25,1.25,1.25h13.756c0.69,0,1.25-0.56,1.25-1.25
		s-0.56-1.25-1.25-1.25H26.25V9.245C26.25,8.555,25.69,7.995,25,7.995z"/>
	<path fill="#87DB60" d="M9.603,42.118H5.441c1.322-1.588,3.071-3.706,3.992-4.894c1.068-1.376,1.264-3.275,0.499-4.838
		c-0.716-1.464-2.106-2.337-3.717-2.337c-2.591,0-4.698,2.022-4.698,4.509c0,0.69,0.56,1.25,1.25,1.25s1.25-0.56,1.25-1.25
		c0-1.107,0.986-2.009,2.198-2.009c0.882,0,1.301,0.587,1.472,0.937c0.349,0.712,0.259,1.578-0.229,2.207
		c-1.539,1.986-5.607,6.823-5.648,6.872c-0.313,0.372-0.382,0.892-0.177,1.332c0.205,0.441,0.647,0.723,1.133,0.723h6.837
		c0.69,0,1.25-0.56,1.25-1.25S10.293,42.118,9.603,42.118z"/>
	<path fill="#87DB60" d="M21.311,39.472h-1.158v-8.174c0-0.543-0.352-1.025-0.869-1.19c-0.519-0.168-1.084,0.023-1.399,0.465
		l-6.713,9.424c-0.271,0.381-0.308,0.882-0.093,1.298c0.215,0.416,0.644,0.677,1.111,0.677h5.463v1.595c0,0.69,0.56,1.25,1.25,1.25
		s1.25-0.56,1.25-1.25v-1.595h1.158c0.69,0,1.25-0.56,1.25-1.25S22.001,39.472,21.311,39.472z M17.652,39.472h-3.038l3.038-4.265
		V39.472z"/>
</g>
</svg>
