<?xml version="1.0" encoding="utf-8"?>
<!-- Generator: Adobe Illustrator 15.1.0, SVG Export Plug-In . SVG Version: 6.00 Build 0)  -->
<!DOCTYPE svg PUBLIC "-//W3C//DTD SVG 1.1//EN" "http://www.w3.org/Graphics/SVG/1.1/DTD/svg11.dtd">
<svg version="1.1" id="Layer_1" xmlns="http://www.w3.org/2000/svg" xmlns:xlink="http://www.w3.org/1999/xlink" x="0px" y="0px"
	 width="28px" height="22px" viewBox="0 0 28 22" enable-background="new 0 0 28 22" xml:space="preserve">
<g>
	<polygon fill="#D9D9D9" points="7.145,5.01 10.391,14.824 15.757,14.824 15.757,5.01 	"/>
	<path fill="#D9D9D9" d="M26.362,6.275c-0.796,2.059-2.468,6.385-2.938,7.643c-0.188,0.502-0.582,0.906-1.224,0.906H10.391
		l0.12-9.814c0,0,11.324,0,15.099,0C26.203,5.01,26.603,5.652,26.362,6.275z"/>
	<g>
		<path fill="#D9D9D9" d="M10.391,14.824c-0.503,0-0.977-0.305-1.167-0.801L4.788,2.5H1.25C0.56,2.5,0,1.939,0,1.25
			C0,0.558,0.56,0,1.25,0h4.396c0.518,0,0.982,0.318,1.167,0.801l4.744,12.324c0.248,0.645-0.521,1.367-1.166,1.615
			C10.243,14.797,10.539,14.824,10.391,14.824z"/>
	</g>
	<circle fill="#D9D9D9" cx="20.89" cy="19.068" r="2.25"/>
	<circle fill="#D9D9D9" cx="11.451" cy="19.068" r="2.25"/>
</g>
</svg>
