<?xml version="1.0" encoding="utf-8"?>
<!-- Generator: Adobe Illustrator 15.1.0, SVG Export Plug-In . SVG Version: 6.00 Build 0)  -->
<!DOCTYPE svg PUBLIC "-//W3C//DTD SVG 1.1//EN" "http://www.w3.org/Graphics/SVG/1.1/DTD/svg11.dtd">
<svg version="1.1" id="Layer_1" xmlns="http://www.w3.org/2000/svg" xmlns:xlink="http://www.w3.org/1999/xlink" x="0px" y="0px"
	 width="30px" height="30px" viewBox="0 0 30 30" enable-background="new 0 0 30 30" xml:space="preserve">
<g>
	<g>
		<g>
			<path fill="#B2B2B2" d="M15,0C6.72,0,0,6.718,0,15c0,8.285,6.72,15,15,15c8.284,0,15-6.715,15-15C30,6.718,23.284,0,15,0z"/>
		</g>
	</g>
	<g>
		<g>
			<path fill="#FFFFFF" d="M10.757,20.242c-0.256,0-0.512-0.098-0.707-0.293c-0.391-0.391-0.391-1.023,0-1.414l8.485-8.484
				c0.391-0.391,1.023-0.391,1.414,0s0.391,1.023,0,1.414l-8.485,8.484C11.269,20.145,11.013,20.242,10.757,20.242z"/>
		</g>
		<g>
			<g>
				<path fill="#FFFFFF" d="M19.243,20.242c-0.256,0-0.512-0.098-0.707-0.293l-8.485-8.484c-0.391-0.391-0.391-1.023,0-1.414
					s1.023-0.391,1.414,0l8.485,8.484c0.391,0.391,0.391,1.023,0,1.414C19.754,20.145,19.499,20.242,19.243,20.242z"/>
			</g>
		</g>
	</g>
</g>
</svg>
