<?xml version="1.0" encoding="utf-8"?>
<!-- Generator: Adobe Illustrator 15.1.0, SVG Export Plug-In . SVG Version: 6.00 Build 0)  -->
<!DOCTYPE svg PUBLIC "-//W3C//DTD SVG 1.1//EN" "http://www.w3.org/Graphics/SVG/1.1/DTD/svg11.dtd">
<svg version="1.1" id="Layer_1" xmlns="http://www.w3.org/2000/svg" xmlns:xlink="http://www.w3.org/1999/xlink" x="0px" y="0px"
	 width="30px" height="30px" viewBox="0 0 30 30" enable-background="new 0 0 30 30" xml:space="preserve">
<g>
	<g>
		<path fill="#DD5044" d="M25.607,4.393c-5.855-5.855-15.359-5.857-21.214,0c-5.859,5.859-5.855,15.359,0,21.215
			c5.858,5.857,15.355,5.857,21.214,0C31.464,19.75,31.465,10.25,25.607,4.393z"/>
	</g>
	<g>
		<g>
			<path fill="#FFFFFF" d="M10.758,20.241c-0.256,0-0.512-0.098-0.707-0.293c-0.391-0.391-0.391-1.023,0-1.414l8.485-8.484
				c0.391-0.391,1.023-0.391,1.414,0s0.391,1.023,0,1.414l-8.485,8.484C11.27,20.144,11.014,20.241,10.758,20.241z"/>
		</g>
		<g>
			<g>
				<path fill="#FFFFFF" d="M19.244,20.241c-0.256,0-0.512-0.098-0.707-0.293l-8.485-8.484c-0.391-0.391-0.391-1.023,0-1.414
					s1.023-0.391,1.414,0l8.485,8.484c0.391,0.391,0.391,1.023,0,1.414C19.755,20.144,19.5,20.241,19.244,20.241z"/>
			</g>
		</g>
	</g>
</g>
</svg>
