<?xml version="1.0" encoding="utf-8"?>
<!-- Generator: Adobe Illustrator 15.1.0, SVG Export Plug-In . SVG Version: 6.00 Build 0)  -->
<!DOCTYPE svg PUBLIC "-//W3C//DTD SVG 1.1//EN" "http://www.w3.org/Graphics/SVG/1.1/DTD/svg11.dtd">
<svg version="1.1" id="Layer_1" xmlns="http://www.w3.org/2000/svg" xmlns:xlink="http://www.w3.org/1999/xlink" x="0px" y="0px"
	 width="30px" height="30px" viewBox="0 0 30 30" enable-background="new 0 0 30 30" xml:space="preserve">
<g>
	<g>
		<g>
			<path fill="#87DB60" d="M25.607,4.393c-5.855-5.855-15.359-5.857-21.214,0c-5.859,5.859-5.855,15.359,0,21.214
				c5.857,5.857,15.354,5.857,21.214,0C31.464,19.75,31.465,10.25,25.607,4.393z"/>
		</g>
	</g>
	<path fill="#FFFFFF" d="M22.532,11.467L18.533,7.47c-0.293-0.293-0.768-0.293-1.061,0l-8.334,8.337
		c-0.063,0.063-0.109,0.139-0.146,0.219c-0.011,0.024-0.019,0.049-0.027,0.072c-0.009,0.025-0.022,0.049-0.028,0.075l-1.142,5.142
		c-0.055,0.25,0.021,0.512,0.202,0.692c0.142,0.142,0.333,0.22,0.53,0.22c0.054,0,0.109-0.006,0.163-0.019l5.141-1.142
		c0.026-0.006,0.05-0.021,0.075-0.028c0.025-0.009,0.048-0.017,0.072-0.027c0.081-0.036,0.157-0.083,0.22-0.146l8.333-8.337
		C22.825,12.234,22.825,11.76,22.532,11.467z M9.9,17.509l2.595,2.595l-3.335,0.74L9.9,17.509z M13.597,19.439l-3.034-3.034
		l7.51-7.512l3.034,3.033L13.597,19.439z"/>
</g>
</svg>
