<?xml version="1.0" encoding="utf-8"?>
<!-- Generator: Adobe Illustrator 15.1.0, SVG Export Plug-In . SVG Version: 6.00 Build 0)  -->
<!DOCTYPE svg PUBLIC "-//W3C//DTD SVG 1.1//EN" "http://www.w3.org/Graphics/SVG/1.1/DTD/svg11.dtd">
<svg version="1.1" id="Layer_1" xmlns="http://www.w3.org/2000/svg" xmlns:xlink="http://www.w3.org/1999/xlink" x="0px" y="0px"
	 width="206px" height="21px" viewBox="0 0 206 21" enable-background="new 0 0 206 21" xml:space="preserve">
<g>
	<g>
		<path fill="#999999" d="M173.04,5.495h-5.853c-0.238,0-0.433,0.195-0.433,0.433v11.791c0,0.24,0.192,0.436,0.433,0.436h1.602
			c0.238,0,0.434-0.194,0.434-0.436V7.621h3.817c0.237,0,0.433-0.194,0.433-0.434v-1.26C173.473,5.69,173.277,5.495,173.04,5.495z"
			/>
		<path fill="#999999" d="M204.867,16.027h-0.896V5.927c0-0.237-0.195-0.433-0.434-0.433h-7.672c-0.238,0-0.434,0.195-0.434,0.433
			V11c0,1.745-0.209,2.693-0.457,3.32c-0.353,0.882-0.826,1.43-1.65,1.656c-0.162,0.045-0.361,0.237-0.361,0.483v4.104
			c0,0.238,0.195,0.435,0.434,0.435h1.412c0.238,0,0.435-0.194,0.435-0.435v-2.412h7.78v2.412c0,0.238,0.193,0.435,0.433,0.435
			h1.412c0.237,0,0.435-0.194,0.435-0.435V16.46C205.301,16.223,205.105,16.027,204.867,16.027z M201.505,16.027H196.4
			c0.359-0.342,0.72-0.797,0.986-1.498c0.227-0.607,0.437-1.575,0.437-3.529V7.621h3.683L201.505,16.027L201.505,16.027z"/>
		<path fill="#999999" d="M188.344,5.211h-0.842c-0.238,0-0.555,0.152-0.702,0.338l-6.716,8.449v-8.07
			c0-0.237-0.193-0.433-0.434-0.433h-1.601c-0.237,0-0.434,0.195-0.434,0.433v12.04c0,0.237,0.192,0.431,0.43,0.433h0.851
			c0.237-0.002,0.551-0.151,0.696-0.338l6.716-8.448v8.106c0,0.237,0.192,0.432,0.43,0.434h1.609
			c0.235-0.002,0.428-0.195,0.428-0.434V5.645C188.775,5.404,188.582,5.211,188.344,5.211z"/>
	</g>
	<g>
		<path fill="#999999" d="M148.759,0.665c-0.896,0-1.622,0.728-1.622,1.627c0,0.896,0.727,1.62,1.622,1.62
			c0.903,0,1.625-0.725,1.625-1.62C150.384,1.393,149.662,0.665,148.759,0.665z"/>
		<path fill="#999999" d="M33.17,17.876c-0.685,0.368-1.608,0.563-2.767,0.563c-2.22,0-3.567-0.76-4.63-1.769
			c-1.461-1.401-2.031-2.979-2.031-4.838c0-2.296,0.948-3.947,2.031-4.953c1.271-1.195,2.846-1.67,4.649-1.67
			c0.767,0,1.83,0.163,2.737,0.592c0.279,0.133,0.375,0.358,0.375,0.549c0,0.412,0,1.601,0,1.601c0,0.237-0.242,0.354-0.495,0.202
			c-0.832-0.505-1.894-0.703-2.56-0.703c-2.543,0-4.194,2.087-4.194,4.422c0,2.809,2.163,4.326,4.289,4.326
			c1.116,0,1.75-0.23,2.465-0.66c0.204-0.123,0.495-0.02,0.495,0.219c0,0,0,1.127,0,1.522C33.535,17.543,33.433,17.732,33.17,17.876
			z"/>
		<path fill="#999999" d="M62.322,11.834c0,3.854-2.77,6.605-6.755,6.605c-3.986,0-6.756-2.754-6.756-6.605
			c0-3.852,2.77-6.623,6.756-6.623C59.552,5.211,62.322,7.982,62.322,11.834z M59.78,11.834c0-2.562-1.746-4.383-4.213-4.383
			c-2.466,0-4.213,1.821-4.213,4.383c0,2.563,1.747,4.365,4.213,4.365C58.034,16.199,59.78,14.396,59.78,11.834z"/>
		<path fill="#999999" d="M3.813,13.467c2.902,0,4.499-1.754,4.499-3.947c0-1.895-1.237-4.023-4.212-4.023H0.433
			C0.195,5.496,0,5.689,0,5.929v11.792c0,0.237,0.193,0.43,0.429,0.432h1.608c0.236-0.002,0.429-0.193,0.429-0.432v-4.254H3.813z
			 M2.467,7.621h0.854c1.734,0,2.449,0.704,2.449,1.839v0.001l0,0c0,1.06-0.811,1.881-1.863,1.881c-0.238,0-1.439-0.002-1.439-0.002
			L2.467,7.621L2.467,7.621z"/>
		<path fill="#999999" d="M70.717,13.467c2.902,0,4.5-1.754,4.5-3.947c0-1.895-1.238-4.023-4.213-4.023h-3.667
			c-0.238,0-0.433,0.193-0.433,0.433v11.792c0,0.236,0.193,0.428,0.429,0.432h1.608c0.236-0.004,0.429-0.194,0.429-0.432v-4.255
			L70.717,13.467L70.717,13.467z M69.371,7.621h0.854c1.734,0,2.449,0.704,2.449,1.839v0.001l0,0c0,1.06-0.811,1.881-1.863,1.881
			c-0.239,0-1.44-0.002-1.44-0.002V7.621z"/>
		<path fill="#999999" d="M19.166,5.496H13.01c-0.238,0-0.433,0.193-0.433,0.433v11.792c0,0.237,0.193,0.43,0.429,0.432h6.164
			c0.236-0.002,0.429-0.193,0.429-0.432v-1.26c0-0.238-0.195-0.434-0.433-0.434h-4.122v-3.453h3.936
			c0.236-0.002,0.429-0.195,0.429-0.432v-1.261c0-0.238-0.195-0.433-0.433-0.433c0,0-3.502-0.001-3.503-0.001h-0.429V7.621h4.122
			c0.238,0,0.433-0.195,0.433-0.433v-1.26C19.599,5.689,19.404,5.496,19.166,5.496z"/>
		<path fill="#999999" d="M45.129,5.496h-7.295c-0.238,0-0.433,0.193-0.433,0.433v1.26c0,0.237,0.195,0.433,0.433,0.433h2.415
			v10.101c0,0.236,0.193,0.428,0.429,0.432h1.607c0.237-0.004,0.43-0.194,0.43-0.432V7.622h2.414c0.238,0,0.433-0.195,0.433-0.433
			v-1.26C45.562,5.689,45.367,5.496,45.129,5.496z"/>
		<path fill="#999999" d="M89.66,17.753L84.657,5.629c-0.091-0.219-0.36-0.398-0.599-0.398h-0.993c-0.238,0-0.508,0.178-0.601,0.396
			l-5.148,12.129c-0.093,0.219,0.026,0.396,0.264,0.396h1.811c0.238,0,0.508-0.178,0.601-0.396l0.783-1.859l0.168-0.399h5.105
			L87,17.754c0.092,0.221,0.362,0.398,0.601,0.398h1.791C89.63,18.152,89.751,17.975,89.66,17.753z M81.721,13.484l1.821-4.554
			L83.7,9.334l1.626,4.15H81.721z"/>
		<path fill="#999999" d="M103.798,5.496h-1.602c-0.238,0-0.433,0.193-0.433,0.433v4.462H96.41V5.929
			c0-0.239-0.195-0.433-0.433-0.433h-1.6c-0.238,0-0.433,0.193-0.433,0.433v11.792c0,0.237,0.193,0.43,0.429,0.432h1.607
			c0.236-0.002,0.429-0.193,0.429-0.432v-5.203h5.353v5.203c0,0.237,0.192,0.43,0.429,0.432h1.609
			c0.235-0.002,0.429-0.193,0.429-0.432V5.929C104.23,5.689,104.035,5.496,103.798,5.496z"/>
		<path fill="#999999" d="M119.342,5.496h-1.602c-0.238,0-0.434,0.193-0.434,0.433v4.462h-5.354V5.929
			c0-0.239-0.193-0.433-0.433-0.433h-1.6c-0.238,0-0.434,0.193-0.434,0.433v11.792c0,0.237,0.193,0.43,0.43,0.432h1.607
			c0.235-0.002,0.428-0.193,0.428-0.432v-5.203h5.354v5.203c0,0.237,0.193,0.43,0.43,0.432h1.609c0.234-0.002,0.43-0.193,0.43-0.432
			V5.929C119.773,5.689,119.578,5.496,119.342,5.496z"/>
		<path fill="#999999" d="M137.48,5.496h-1.602c-0.238,0-0.434,0.193-0.434,0.433v11.792c0,0.237,0.193,0.43,0.43,0.432h1.607
			c0.236-0.002,0.431-0.193,0.431-0.432V5.929C137.914,5.689,137.719,5.496,137.48,5.496z"/>
		<path fill="#999999" d="M132.586,11.23c-0.986-0.911-2.314-1.042-3.546-1.042h-1.541v-4.26c0-0.239-0.194-0.433-0.433-0.433
			h-1.603c-0.237,0-0.433,0.193-0.433,0.433V17.72c0,0.237,0.191,0.429,0.429,0.433h4.031c1.063,0,2.638-0.17,3.588-1.555
			c0.416-0.608,0.683-1.574,0.683-2.431C133.764,12.955,133.287,11.878,132.586,11.23z M129.13,16.027h-1.631v-3.715h1.479
			c0.446,0,2.239,0.055,2.239,1.854C131.219,15.576,130.143,16.027,129.13,16.027z"/>
		<path fill="#999999" d="M153.906,5.211h-0.842c-0.238,0-0.555,0.152-0.701,0.338l-6.717,8.449V5.929
			c0-0.239-0.193-0.433-0.433-0.433h-1.603c-0.236,0-0.432,0.193-0.432,0.433v12.04c0,0.236,0.192,0.43,0.43,0.432h0.851
			c0.237-0.002,0.549-0.151,0.696-0.338l6.716-8.447v8.105c0,0.237,0.192,0.43,0.429,0.432h1.608c0.235-0.002,0.43-0.193,0.43-0.432
			V5.645C154.34,5.405,154.145,5.211,153.906,5.211z"/>
	</g>
</g>
</svg>
