<?xml version="1.0" encoding="utf-8"?>
<!-- Generator: Adobe Illustrator 15.1.0, SVG Export Plug-In . SVG Version: 6.00 Build 0)  -->
<!DOCTYPE svg PUBLIC "-//W3C//DTD SVG 1.1//EN" "http://www.w3.org/Graphics/SVG/1.1/DTD/svg11.dtd">
<svg version="1.1" id="Layer_1" xmlns="http://www.w3.org/2000/svg" xmlns:xlink="http://www.w3.org/1999/xlink" x="0px" y="0px"
	 width="206px" height="21px" viewBox="0 0 206 21" enable-background="new 0 0 206 21" xml:space="preserve">
<g>
	<g>
		<path d="M173.04,5.495h-5.853c-0.238,0-0.432,0.195-0.432,0.433v11.791c0,0.24,0.193,0.435,0.432,0.435h1.602
			c0.238,0,0.434-0.194,0.434-0.435V7.621h3.817c0.238,0,0.433-0.194,0.433-0.434v-1.26C173.473,5.69,173.278,5.495,173.04,5.495z"
			/>
		<path d="M204.867,16.027h-0.896v-10.1c0-0.237-0.195-0.433-0.434-0.433h-7.672c-0.238,0-0.434,0.195-0.434,0.433V11
			c0,1.745-0.209,2.693-0.456,3.32c-0.353,0.882-0.827,1.43-1.651,1.656c-0.162,0.045-0.361,0.238-0.361,0.484v4.105
			c0,0.238,0.195,0.434,0.434,0.434h1.412c0.238,0,0.434-0.195,0.434-0.434v-2.413h7.78v2.413c0,0.238,0.194,0.434,0.433,0.434
			h1.412c0.238,0,0.434-0.195,0.434-0.434v-4.105C205.301,16.223,205.105,16.027,204.867,16.027z M201.505,16.027h-5.105
			c0.36-0.342,0.72-0.797,0.987-1.498c0.227-0.607,0.436-1.575,0.436-3.529V7.621h3.683V16.027z"/>
		<path d="M188.344,5.211h-0.842c-0.238,0-0.555,0.152-0.702,0.338l-6.716,8.449v-8.07c0-0.237-0.194-0.433-0.433-0.433h-1.601
			c-0.238,0-0.434,0.195-0.434,0.433v12.04c0,0.237,0.193,0.431,0.43,0.433h0.851c0.237-0.002,0.55-0.152,0.696-0.338l6.715-8.449
			v8.107c0,0.237,0.193,0.431,0.43,0.433h1.609c0.236-0.002,0.429-0.195,0.429-0.433V5.645
			C188.776,5.404,188.582,5.211,188.344,5.211z"/>
	</g>
	<g>
		<path d="M148.759,0.665c-0.896,0-1.622,0.728-1.622,1.627c0,0.896,0.727,1.62,1.622,1.62c0.903,0,1.625-0.725,1.625-1.62
			C150.384,1.393,149.662,0.665,148.759,0.665z"/>
		<path d="M33.17,17.876c-0.685,0.368-1.608,0.563-2.767,0.563c-2.22,0-3.567-0.76-4.63-1.768c-1.461-1.402-2.031-2.979-2.031-4.838
			c0-2.296,0.948-3.947,2.031-4.953c1.271-1.195,2.846-1.67,4.649-1.67c0.767,0,1.83,0.163,2.737,0.592
			c0.279,0.133,0.375,0.358,0.375,0.549c0,0.412,0,1.601,0,1.601c0,0.237-0.242,0.354-0.495,0.202
			c-0.832-0.505-1.894-0.703-2.56-0.703c-2.543,0-4.194,2.087-4.194,4.422c0,2.809,2.163,4.326,4.289,4.326
			c1.116,0,1.75-0.23,2.465-0.66c0.204-0.123,0.495-0.02,0.495,0.219c0,0,0,1.127,0,1.522C33.535,17.543,33.433,17.732,33.17,17.876
			z"/>
		<path d="M62.322,11.834c0,3.853-2.77,6.605-6.755,6.605c-3.986,0-6.756-2.753-6.756-6.605c0-3.852,2.77-6.623,6.756-6.623
			C59.552,5.211,62.322,7.982,62.322,11.834z M59.78,11.834c0-2.562-1.746-4.383-4.213-4.383c-2.466,0-4.213,1.821-4.213,4.383
			c0,2.563,1.747,4.365,4.213,4.365C58.034,16.199,59.78,14.396,59.78,11.834z"/>
		<path d="M3.813,13.467c2.902,0,4.499-1.754,4.499-3.947c0-1.895-1.237-4.023-4.212-4.023H0.433C0.195,5.496,0,5.689,0,5.929
			v11.792c0,0.237,0.193,0.429,0.429,0.432h1.608c0.236-0.003,0.429-0.194,0.429-0.432v-4.254H3.813z M2.467,7.621h0.854
			c1.734,0,2.449,0.704,2.449,1.839v0.001l0,0c0,1.06-0.811,1.881-1.863,1.881c-0.238,0-1.439-0.002-1.439-0.002V7.621z"/>
		<path d="M70.717,13.467c2.902,0,4.5-1.754,4.5-3.947c0-1.895-1.238-4.023-4.213-4.023h-3.667c-0.238,0-0.433,0.193-0.433,0.433
			v11.792c0,0.237,0.193,0.429,0.429,0.432h1.608c0.236-0.003,0.429-0.194,0.429-0.432v-4.254H70.717z M69.371,7.621h0.854
			c1.734,0,2.449,0.704,2.449,1.839v0.001l0,0c0,1.06-0.811,1.881-1.863,1.881c-0.239,0-1.44-0.002-1.44-0.002V7.621z"/>
		<path d="M19.166,5.496H13.01c-0.238,0-0.433,0.193-0.433,0.433v11.792c0,0.237,0.193,0.429,0.429,0.432h6.164
			c0.236-0.003,0.429-0.194,0.429-0.432v-1.26c0-0.238-0.195-0.434-0.433-0.434h-4.122v-3.453h3.936
			c0.236-0.002,0.429-0.195,0.429-0.432v-1.26c0-0.238-0.195-0.433-0.433-0.433c0,0-3.502-0.001-3.503-0.001h-0.429V7.621h4.122
			c0.238,0,0.433-0.195,0.433-0.433v-1.26C19.599,5.689,19.404,5.496,19.166,5.496z"/>
		<path d="M45.129,5.496h-7.295c-0.238,0-0.433,0.193-0.433,0.433v1.26c0,0.237,0.195,0.433,0.433,0.433h2.415v10.1
			c0,0.237,0.193,0.429,0.429,0.432h1.607c0.237-0.003,0.43-0.194,0.43-0.432v-10.1h2.414c0.238,0,0.433-0.195,0.433-0.433v-1.26
			C45.562,5.689,45.367,5.496,45.129,5.496z"/>
		<path d="M89.66,17.753L84.657,5.629c-0.091-0.219-0.36-0.398-0.599-0.398h-0.993c-0.238,0-0.508,0.178-0.601,0.396l-5.148,12.129
			c-0.093,0.219,0.026,0.396,0.264,0.396h1.811c0.238,0,0.508-0.178,0.601-0.396l0.783-1.86l0.168-0.399h5.105L87,17.754
			c0.092,0.221,0.362,0.398,0.601,0.398h1.791C89.63,18.152,89.751,17.975,89.66,17.753z M81.721,13.485l1.821-4.555L83.7,9.334
			l1.626,4.151H81.721z"/>
		<path d="M103.798,5.496h-1.602c-0.238,0-0.433,0.193-0.433,0.433v4.462h-5.353V5.929c0-0.239-0.195-0.433-0.433-0.433h-1.6
			c-0.238,0-0.433,0.193-0.433,0.433v11.792c0,0.237,0.193,0.429,0.429,0.432h1.607c0.236-0.003,0.429-0.194,0.429-0.432v-5.203
			h5.353v5.203c0,0.237,0.192,0.429,0.429,0.432h1.609c0.235-0.003,0.429-0.194,0.429-0.432V5.929
			C104.23,5.689,104.035,5.496,103.798,5.496z"/>
		<path d="M119.342,5.496h-1.602c-0.238,0-0.434,0.193-0.434,0.433v4.462h-5.354V5.929c0-0.239-0.193-0.433-0.432-0.433h-1.6
			c-0.238,0-0.434,0.193-0.434,0.433v11.792c0,0.237,0.193,0.429,0.43,0.432h1.607c0.236-0.003,0.428-0.194,0.428-0.432v-5.203
			h5.354v5.203c0,0.237,0.193,0.429,0.43,0.432h1.609c0.234-0.003,0.429-0.194,0.429-0.432V5.929
			C119.774,5.689,119.578,5.496,119.342,5.496z"/>
		<path d="M137.481,5.496h-1.602c-0.238,0-0.433,0.193-0.433,0.433v11.792c0,0.237,0.192,0.429,0.429,0.432h1.608
			c0.236-0.003,0.43-0.194,0.43-0.432V5.929C137.914,5.689,137.719,5.496,137.481,5.496z"/>
		<path d="M132.586,11.231c-0.987-0.911-2.314-1.043-3.546-1.043h-1.541v-4.26c0-0.239-0.194-0.433-0.433-0.433h-1.602
			c-0.238,0-0.433,0.193-0.433,0.433v11.792c0,0.237,0.192,0.429,0.429,0.432h4.031c1.063,0,2.638-0.17,3.588-1.555
			c0.416-0.608,0.683-1.574,0.683-2.43C133.763,12.955,133.287,11.878,132.586,11.231z M129.13,16.027h-1.631v-3.714h1.48
			c0.446,0,2.239,0.054,2.239,1.854C131.219,15.576,130.143,16.027,129.13,16.027z"/>
		<path d="M153.906,5.211h-0.842c-0.238,0-0.554,0.152-0.701,0.338l-6.716,8.449V5.929c0-0.239-0.194-0.433-0.433-0.433h-1.602
			c-0.237,0-0.432,0.193-0.432,0.433v12.04c0,0.236,0.192,0.43,0.429,0.431h0.851c0.237-0.001,0.549-0.151,0.696-0.337l6.716-8.448
			v8.106c0,0.237,0.192,0.429,0.429,0.432h1.608c0.236-0.003,0.43-0.194,0.43-0.432V5.645C154.34,5.405,154.145,5.211,153.906,5.211
			z"/>
	</g>
</g>
</svg>
