<?xml version="1.0" encoding="utf-8"?>
<!-- Generator: Adobe Illustrator 15.1.0, SVG Export Plug-In . SVG Version: 6.00 Build 0)  -->
<!DOCTYPE svg PUBLIC "-//W3C//DTD SVG 1.1//EN" "http://www.w3.org/Graphics/SVG/1.1/DTD/svg11.dtd">
<svg version="1.1" id="Layer_1" xmlns="http://www.w3.org/2000/svg" xmlns:xlink="http://www.w3.org/1999/xlink" x="0px" y="0px"
	 width="34px" height="28px" viewBox="0 0 34 28" enable-background="new 0 0 34 28" xml:space="preserve">
<g>
	<path d="M7.963,21.123c1.855-1.612,1.625-3.973,3.237-2.119l-5.078,6.495c-1.681,2.157-5.599,1.653-5.824-1.761l5.266-2.852
		L7.963,21.123z"/>
	<path d="M29.976,4.338c-0.51-0.237-0.928,0.029-0.928,0.593v1.841c0,0.563,0.418,0.829,0.928,0.593l3.479-1.169
		c0.327-0.113,0.334-0.579,0-0.698L29.976,4.338z"/>
	<path fill="#FBDC67" d="M21.559,7.095L5.563,20.886c0.434,0.722,0.934,1.398,1.494,2.023c2.42,2.695,5.932,4.391,9.838,4.391
		c7.301,0,13.221-5.916,13.221-13.22V6.464V4.359c0-1.068-1.443-3.659-4.266-3.659c-2.363,0-4.291,1.929-4.291,4.291V7.095z"/>
	<path d="M24.491,13.541c0-2.571-1.14-4.872-2.935-6.441L8.731,18.157c1.521,2.369,4.174,3.943,7.201,3.943
		C20.659,22.1,24.491,18.268,24.491,13.541z"/>
	<path d="M26.89,3.75c-0.529,0-0.958,0.429-0.958,0.96c0,0.529,0.429,0.958,0.958,0.958c0.533,0,0.959-0.428,0.959-0.958
		C27.849,4.178,27.423,3.75,26.89,3.75z"/>
	<line fill="#F3D213" x1="30.116" y1="6.464" x2="30.116" y2="4.359"/>
</g>
</svg>
