<?xml version="1.0" encoding="utf-8"?>
<!-- Generator: Adobe Illustrator 15.1.0, SVG Export Plug-In . SVG Version: 6.00 Build 0)  -->
<!DOCTYPE svg PUBLIC "-//W3C//DTD SVG 1.1//EN" "http://www.w3.org/Graphics/SVG/1.1/DTD/svg11.dtd">
<svg version="1.1" id="Layer_1" xmlns="http://www.w3.org/2000/svg" xmlns:xlink="http://www.w3.org/1999/xlink" x="0px" y="0px"
	 width="42px" height="26px" viewBox="0 0 42 26" enable-background="new 0 0 42 26" xml:space="preserve">
<g>
	<path fill-rule="evenodd" clip-rule="evenodd" fill="#666666" d="M0,12.513C0,5.601,5.602,0,12.512,0
		c6.909,0,12.513,5.601,12.513,12.513c0,6.908-5.604,12.513-12.513,12.513C5.602,25.026,0,19.421,0,12.513L0,12.513z"/>
	<path fill-rule="evenodd" clip-rule="evenodd" fill="#BFBFBF" d="M29.488,0c-3.905,0-7.392,1.79-9.687,4.594h2.397
		c0.345,0.42,0.66,0.864,0.948,1.327h-4.281c-0.265,0.428-0.504,0.868-0.718,1.328h5.717c0.201,0.431,0.376,0.875,0.527,1.329
		h-6.777c-0.142,0.432-0.268,0.876-0.364,1.329h7.5c0.093,0.436,0.163,0.878,0.208,1.329H17.04
		c-0.042,0.418-0.064,0.846-0.064,1.277c0,0.017,0.002,0.033,0.002,0.049h8.046c-0.002,0.448-0.028,0.894-0.076,1.33h-7.894
		c0.05,0.452,0.127,0.893,0.224,1.329h7.452c-0.1,0.453-0.224,0.895-0.372,1.328h-6.705c0.155,0.456,0.338,0.896,0.542,1.326h5.624
		c-0.218,0.459-0.464,0.903-0.734,1.331h-4.156c0.294,0.462,0.61,0.909,0.96,1.328h2.225c-0.345,0.41-0.725,0.788-1.117,1.152
		c2.232,2.067,5.209,3.341,8.491,3.341C36.397,25.026,42,19.421,42,12.513C42,5.601,36.397,0,29.488,0z"/>
	<path fill-rule="evenodd" clip-rule="evenodd" fill="#FFFFFF" d="M6.554,9.429l-1.807,4.669H4.728L3.929,9.429H2.217L1.56,15.683
		H2.6l0.548-5.214h0.017l0.948,5.214H4.93l2.115-5.214h0.018l-0.547,5.214h1.039l0.658-6.254H6.554z M10.437,10.997
		c-0.706,0-1.166,0.198-1.495,0.341l-0.031,0.895c0.233-0.178,0.754-0.447,1.311-0.447c0.636,0,0.814,0.421,0.766,0.878
		l-0.018,0.168h-0.223c-1.406,0-2.461,0.315-2.593,1.57c-0.09,0.859,0.521,1.352,1.238,1.352c0.663,0,1.044-0.322,1.363-0.699h0.019
		c-0.024,0.226-0.038,0.451-0.003,0.629h1.003c-0.009-0.178-0.013-0.484,0.022-0.817l0.211-2.015
		C12.129,11.697,11.873,10.997,10.437,10.997z M10.882,13.685c-0.086,0.825-0.381,1.317-1.044,1.317
		c-0.43,0-0.678-0.287-0.634-0.708c0.072-0.671,0.657-0.869,1.606-0.869h0.099L10.882,13.685z M14.229,11.839
		c0.403,0,0.689,0.1,0.956,0.206l0.153-0.86c-0.104-0.036-0.544-0.188-1.136-0.188c-0.977,0-1.667,0.672-1.732,1.308
		c-0.077,0.726,0.403,1.02,0.84,1.299l0.427,0.269c0.38,0.232,0.451,0.403,0.432,0.582c-0.037,0.359-0.362,0.459-0.765,0.459
		c-0.519,0-0.952-0.234-1.123-0.304l-0.15,0.921c0.223,0.089,0.684,0.223,1.256,0.223c1.005,0,1.774-0.509,1.865-1.362
		c0.056-0.536-0.203-0.796-0.738-1.163l-0.51-0.349c-0.3-0.208-0.484-0.341-0.458-0.591C13.576,12.008,13.782,11.839,14.229,11.839z
		 M17.163,14.276l0.25-2.392h0.924l0.086-0.816H17.5l0.135-1.289l-1.146,0.339l-0.1,0.949h-0.734l-0.085,0.816h0.735l-0.266,2.526
		c-0.102,0.967,0.324,1.343,1.148,1.343c0.332,0,0.582-0.07,0.761-0.152l0.083-0.788c-0.086,0.044-0.236,0.1-0.433,0.1
		C17.274,14.914,17.111,14.769,17.163,14.276z M20.464,10.997c-1.174,0-2.013,1.065-2.157,2.446
		c-0.131,1.246,0.403,2.311,1.89,2.311c0.663,0,1.167-0.197,1.41-0.295l0.039-0.878c-0.222,0.152-0.567,0.358-1.247,0.358
		c-0.86,0-1.125-0.474-1.042-1.264h2.67l0.024-0.213C22.249,11.579,21.459,10.997,20.464,10.997z M21.026,12.976h-1.595
		c0.064-0.607,0.371-1.225,0.952-1.225C20.887,11.75,21.112,12.163,21.026,12.976z M23.683,11.91h-0.018
		c0.029-0.277,0.033-0.564,0.052-0.842h-1.004c0.006,0.206-0.013,0.476-0.042,0.763l-0.404,3.852h1.11l0.266-2.527
		c0.091-0.861,0.622-1.138,1.079-1.138c0.116,0,0.212,0.02,0.308,0.044l0.109-1.04c-0.062-0.007-0.112-0.026-0.186-0.026
		C24.262,10.997,23.855,11.553,23.683,11.91z M26.392,12.556c0.17-1.621,1.055-2.266,2.003-2.266c0.583,0,0.927,0.224,1.147,0.34
		l0.171-1.03c-0.223-0.091-0.726-0.26-1.361-0.26c-1.864,0-2.986,1.389-3.178,3.215c-0.191,1.829,0.639,3.215,2.538,3.215
		c0.564,0,1.13-0.096,1.376-0.224l0.048-1.048c-0.281,0.189-0.661,0.322-1.217,0.322C26.969,14.822,26.22,14.178,26.392,12.556z
		 M31.644,10.997c-0.707,0-1.167,0.198-1.496,0.341l-0.031,0.895c0.234-0.178,0.754-0.447,1.311-0.447
		c0.635,0,0.815,0.421,0.767,0.878l-0.018,0.168h-0.223c-1.408,0-2.462,0.315-2.593,1.57c-0.09,0.859,0.521,1.352,1.237,1.352
		c0.664,0,1.046-0.322,1.364-0.699h0.018c-0.023,0.226-0.037,0.451-0.003,0.629h1.004c-0.008-0.178-0.013-0.484,0.023-0.817
		l0.212-2.015C33.335,11.697,33.078,10.997,31.644,10.997z M32.088,13.685c-0.085,0.825-0.38,1.317-1.043,1.317
		c-0.429,0-0.678-0.287-0.634-0.708c0.072-0.671,0.656-0.869,1.606-0.869h0.099L32.088,13.685z M36.408,11.023
		c-0.062-0.007-0.114-0.026-0.185-0.026c-0.691,0-1.098,0.556-1.27,0.913h-0.019c0.03-0.277,0.032-0.564,0.053-0.842h-1.004
		c0.006,0.206-0.014,0.476-0.044,0.763l-0.405,3.852h1.112l0.264-2.527c0.09-0.861,0.621-1.138,1.079-1.138
		c0.117,0,0.213,0.02,0.31,0.044L36.408,11.023z M39.5,8.963l-0.29,2.77h-0.018c-0.125-0.36-0.452-0.736-1.115-0.736
		c-0.995,0-1.686,0.878-1.846,2.383c-0.133,1.28,0.225,2.373,1.372,2.373c0.717,0,1.091-0.394,1.311-0.788h0.027
		c-0.033,0.314-0.042,0.582-0.04,0.718h1.039c-0.008-0.17,0.012-0.457,0.046-0.789l0.625-5.932H39.5z M39.039,13.362
		c-0.091,0.87-0.39,1.577-1.043,1.577c-0.646,0-0.759-0.538-0.647-1.603c0.096-0.923,0.375-1.524,0.992-1.524
		C38.951,11.812,39.132,12.467,39.039,13.362z"/>
</g>
</svg>
