<?xml version="1.0" encoding="utf-8"?>
<!-- Generator: Adobe Illustrator 15.1.0, SVG Export Plug-In . SVG Version: 6.00 Build 0)  -->
<!DOCTYPE svg PUBLIC "-//W3C//DTD SVG 1.1//EN" "http://www.w3.org/Graphics/SVG/1.1/DTD/svg11.dtd">
<svg version="1.1" id="Layer_1" xmlns="http://www.w3.org/2000/svg" xmlns:xlink="http://www.w3.org/1999/xlink" x="0px" y="0px"
	 width="60px" height="30px" viewBox="0 0 60 30" enable-background="new 0 0 60 30" xml:space="preserve">
<g>
	<path fill="#87DB60" d="M0,10v20H50.01C55.505,29.994,60,25.496,60,20V0H9.991C4.496,0.006,0,4.503,0,10z"/>
	<g>
		<path fill="#FFFFFF" d="M18.259,18.838v-7.06h1.177v1.303c0.532-0.938,1.317-1.415,2.339-1.415c1.289,0,2.073,0.798,2.073,2.199
			v4.973h-1.177v-4.665c0-0.966-0.406-1.443-1.219-1.443c-0.546,0-1.022,0.294-1.429,0.869c-0.392,0.574-0.588,1.345-0.588,2.283
			v2.956H18.259z"/>
		<path fill="#FFFFFF" d="M31.327,12.646c0.574,0.645,0.854,1.429,0.854,2.367v0.546h-5.183c0.07,1.387,0.771,2.325,1.989,2.325
			c0.995,0,1.555-0.434,1.961-1.345l1.037,0.448c-0.658,1.387-1.541,1.961-2.998,1.961c-1.022,0-1.807-0.351-2.367-1.051
			c-0.546-0.714-0.827-1.569-0.827-2.591c0-1.023,0.28-1.877,0.827-2.578c0.56-0.714,1.345-1.064,2.367-1.064
			C29.982,11.666,30.767,11.988,31.327,12.646z M30.949,14.496c-0.224-1.065-0.882-1.765-1.961-1.765
			c-1.051,0-1.695,0.687-1.919,1.765H30.949z"/>
		<path fill="#FFFFFF" d="M33.216,11.778h1.233l1.443,5.421l1.387-5.421h1.177l1.387,5.421l1.442-5.421h1.233l-2.143,7.06h-1.121
			l-1.387-5.365l-1.387,5.365H35.36L33.216,11.778z"/>
	</g>
</g>
</svg>
