<?xml version="1.0" encoding="utf-8"?>
<!-- Generator: Adobe Illustrator 15.1.0, SVG Export Plug-In . SVG Version: 6.00 Build 0)  -->
<!DOCTYPE svg PUBLIC "-//W3C//DTD SVG 1.1//EN" "http://www.w3.org/Graphics/SVG/1.1/DTD/svg11.dtd">
<svg version="1.1" id="Layer_1" xmlns="http://www.w3.org/2000/svg" xmlns:xlink="http://www.w3.org/1999/xlink" x="0px" y="0px"
	 width="30px" height="30px" viewBox="0 0 30 30" enable-background="new 0 0 30 30" xml:space="preserve">
<g>
	<g>
		<g>
			<path fill="#87DB60" d="M15,0C6.72,0,0,6.718,0,15c0,8.285,6.72,15,15,15c8.284,0,15-6.715,15-15C30,6.718,23.284,0,15,0z"/>
		</g>
	</g>
	<g>
		<g>
			<path fill="#FFFFFF" d="M15,22c-0.552,0-1-0.448-1-1V9c0-0.552,0.448-1,1-1s1,0.448,1,1v12C16,21.552,15.552,22,15,22z"/>
		</g>
		<g>
			<g>
				<path fill="#FFFFFF" d="M21,16H9c-0.552,0-1-0.448-1-1s0.448-1,1-1h12c0.552,0,1,0.448,1,1S21.552,16,21,16z"/>
			</g>
		</g>
	</g>
</g>
</svg>
