<?xml version="1.0" encoding="utf-8"?>
<!-- Generator: Adobe Illustrator 15.1.0, SVG Export Plug-In . SVG Version: 6.00 Build 0)  -->
<!DOCTYPE svg PUBLIC "-//W3C//DTD SVG 1.1//EN" "http://www.w3.org/Graphics/SVG/1.1/DTD/svg11.dtd">
<svg version="1.1" id="Layer_1" xmlns="http://www.w3.org/2000/svg" xmlns:xlink="http://www.w3.org/1999/xlink" x="0px" y="0px"
	 width="200px" height="200px" viewBox="0 0 200 200" enable-background="new 0 0 200 200" xml:space="preserve">
<g>
	<path fill="#FFFFFF" d="M190,0H10C4.5,0,0,4.5,0,10v180c0,5.5,4.5,10,10,10h180c5.5,0,10-4.5,10-10V10C200,4.5,195.5,0,190,0L190,0
		z"/>
	<path fill="#5DDB23" d="M22.809,99.592l0.001-44.293h22.146v22.147l0,0C44.956,89.675,35.041,99.592,22.809,99.592z"/>
	<path fill="#BAEAA4" d="M142.771,16.256c-20.291,0-36.74,16.449-36.739,36.74h73.477C179.51,32.705,163.061,16.257,142.771,16.256z
		"/>
	<circle fill="#FFD230" cx="145.48" cy="173.239" r="11.103"/>
	<path fill="#F4DA82" d="M108.859,82.832c0,15.976-12.948,28.928-28.926,28.928v28.928c31.949,0,57.855-25.903,57.855-57.854
		L108.859,82.832z"/>
	<path fill="#FBEBA1" d="M46.038,159.802c-16.071,0-29.091,13.025-29.091,29.095c0,3.933,0.785,7.682,2.199,11.104H72.93
		c1.415-3.422,2.2-7.171,2.2-11.104C75.13,172.828,62.105,159.802,46.038,159.802z"/>
	<path fill="#87DB60" d="M200,152.825v-25.138h-35.648c0,14.738,11.945,26.686,26.686,26.686
		C194.182,154.373,197.198,153.824,200,152.825z"/>
</g>
</svg>
