<?xml version="1.0" encoding="utf-8"?>
<!-- Generator: Adobe Illustrator 15.1.0, SVG Export Plug-In . SVG Version: 6.00 Build 0)  -->
<!DOCTYPE svg PUBLIC "-//W3C//DTD SVG 1.1//EN" "http://www.w3.org/Graphics/SVG/1.1/DTD/svg11.dtd">
<svg version="1.1" id="Layer_1" xmlns="http://www.w3.org/2000/svg" xmlns:xlink="http://www.w3.org/1999/xlink" x="0px" y="0px"
	 width="200px" height="200px" viewBox="0 0 200 200" enable-background="new 0 0 200 200" xml:space="preserve">
<g>
	<path fill="#FFFFFF" d="M190,0H10C4.5,0,0,4.5,0,10v180c0,5.5,4.5,10,10,10h180c5.5,0,10-4.5,10-10V10C200,4.5,195.5,0,190,0L190,0
		z"/>
	<path fill="#BAEAA4" d="M94.947,41.568c15.976,0,28.927,12.95,28.927,28.927h28.929c0-31.948-25.906-57.854-57.855-57.854
		L94.947,41.568z"/>
	<path fill="#FFD230" d="M78.425,116.057c15.795,0,28.604-12.809,28.604-28.604h-57.21
		C49.818,103.249,62.625,116.057,78.425,116.057z"/>
	<path fill="#F4DA82" d="M63.653,162.333c0,11.183-9.065,20.245-20.248,20.245c-11.186,0-20.246-9.063-20.246-20.245
		c0-11.185,9.061-20.251,20.246-20.251C54.588,142.082,63.653,151.148,63.653,162.333z"/>
	<path fill="#5DDB23" d="M123.145,134.814c-9.711,0-17.582,7.873-17.582,17.584v17.582l0,0c9.711,0,17.582-7.873,17.582-17.582
		c9.709,0,17.584-7.875,17.584-17.584H123.145z"/>
	<path fill="#87DB60" d="M18.186,57.049L18.186,57.049c0,9.223,7.475,16.698,16.697,16.698V57.049H18.186z"/>
	<path fill="#FBEBA1" d="M200,143.303c-9.127-0.004-16.523-7.404-16.523-16.527c0-9.127,7.396-16.526,16.523-16.53V85.451
		c-22.818,0.004-41.318,18.502-41.318,41.324S177.18,168.096,200,168.1V143.303z"/>
</g>
</svg>
