<?xml version="1.0" encoding="utf-8"?>
<!-- Generator: Adobe Illustrator 15.1.0, SVG Export Plug-In . SVG Version: 6.00 Build 0)  -->
<!DOCTYPE svg PUBLIC "-//W3C//DTD SVG 1.1//EN" "http://www.w3.org/Graphics/SVG/1.1/DTD/svg11.dtd">
<svg version="1.1" id="Layer_1" xmlns="http://www.w3.org/2000/svg" xmlns:xlink="http://www.w3.org/1999/xlink" x="0px" y="0px"
	 width="200px" height="200px" viewBox="0 0 200 200" enable-background="new 0 0 200 200" xml:space="preserve">
<g>
	<path fill="#FFFFFF" d="M190,0H10C4.5,0,0,4.5,0,10v180c0,5.5,4.5,10,10,10h180c5.5,0,10-4.5,10-10V10C200,4.5,195.5,0,190,0L190,0
		z"/>
	<path fill="#BAEAA4" d="M41.98,43.597v44.294H19.833V65.744l0,0C19.833,53.514,29.749,43.597,41.98,43.597z"/>
	<path fill="#5DDB23" d="M158.439,179.118c9.709,0,17.582-7.871,17.582-17.583v-17.583l0,0c-9.713,0-17.582,7.874-17.582,17.583
		c-9.711,0-17.584,7.872-17.584,17.583H158.439L158.439,179.118z"/>
	<path fill="#FBEBA1" d="M66.702,179.906c20.29,0,36.739-16.449,36.739-36.742H29.963C29.963,163.457,46.414,179.904,66.702,179.906
		z"/>
	<circle fill="#FFD230" cx="158.438" cy="99.234" r="11.104"/>
	<path fill="#FBEBA1" d="M200,39.698V10c0-5.5-4.5-10-10-10h-11.266c2.381,3.09,3.813,6.95,3.813,11.153
		c0,10.109-8.195,18.309-18.307,18.309c-10.109-0.001-18.307-8.2-18.307-18.309c0-4.203,1.432-8.063,3.813-11.153h-29.899
		c-0.895,3.57-1.375,7.305-1.375,11.153c0,25.276,20.491,45.765,45.768,45.765C178.715,56.918,191.613,50.19,200,39.698z"/>
	<path fill="#87DB60" d="M91.725,115.945c0-15.973,12.949-28.925,28.927-28.925V58.092c-31.949,0-57.855,25.904-57.855,57.854
		H91.725z"/>
</g>
</svg>
