<?xml version="1.0" encoding="utf-8"?>
<!-- Generator: Adobe Illustrator 15.1.0, SVG Export Plug-In . SVG Version: 6.00 Build 0)  -->
<!DOCTYPE svg PUBLIC "-//W3C//DTD SVG 1.1//EN" "http://www.w3.org/Graphics/SVG/1.1/DTD/svg11.dtd">
<svg version="1.1" id="Layer_1" xmlns="http://www.w3.org/2000/svg" xmlns:xlink="http://www.w3.org/1999/xlink" x="0px" y="0px"
	 width="16px" height="16px" viewBox="0 0 16 16" enable-background="new 0 0 16 16" xml:space="preserve">
<path fill="#B2B2B2" d="M15.063,14.002l-4.328-4.328C11.525,8.658,12,7.386,12,6c0-3.314-2.686-6-6-6C2.686,0,0,2.686,0,6
	c0,3.313,2.686,6,6,6c1.387,0,2.66-0.475,3.676-1.265l4.327,4.327c0.146,0.146,0.338,0.22,0.53,0.22s0.384-0.073,0.53-0.22
	C15.356,14.77,15.356,14.295,15.063,14.002z M1.5,6c0-2.481,2.019-4.5,4.5-4.5c2.481,0,4.5,2.019,4.5,4.5S8.481,10.5,6,10.5
	C3.519,10.5,1.5,8.481,1.5,6z"/>
</svg>
