<?xml version="1.0" encoding="utf-8"?>
<!-- Generator: Adobe Illustrator 15.1.0, SVG Export Plug-In . SVG Version: 6.00 Build 0)  -->
<!DOCTYPE svg PUBLIC "-//W3C//DTD SVG 1.1//EN" "http://www.w3.org/Graphics/SVG/1.1/DTD/svg11.dtd">
<svg version="1.1" id="Layer_1" xmlns="http://www.w3.org/2000/svg" xmlns:xlink="http://www.w3.org/1999/xlink" x="0px" y="0px"
	 width="16px" height="16px" viewBox="0 0 16 16" enable-background="new 0 0 16 16" xml:space="preserve">
<g>
	<g>
		<path fill="#FFFFFF" d="M6.358,1.858c2.481,0,4.5,2.019,4.5,4.5s-2.019,4.5-4.5,4.5s-4.5-2.019-4.5-4.5S3.877,1.858,6.358,1.858
			 M6.358,0.358c-3.313,0-6,2.686-6,6c0,3.313,2.687,6,6,6s6-2.687,6-6C12.358,3.044,9.672,0.358,6.358,0.358L6.358,0.358z"/>
	</g>
	<g>
		<path fill="#FFFFFF" d="M14.892,15.642c-0.192,0-0.384-0.073-0.53-0.22l-4.767-4.767c-0.293-0.293-0.293-0.768,0-1.061
			s0.768-0.293,1.061,0l4.767,4.767c0.293,0.293,0.293,0.768,0,1.061C15.275,15.568,15.083,15.642,14.892,15.642z"/>
	</g>
</g>
</svg>
