<?xml version="1.0" encoding="utf-8"?>
<!-- Generator: Adobe Illustrator 15.1.0, SVG Export Plug-In . SVG Version: 6.00 Build 0)  -->
<!DOCTYPE svg PUBLIC "-//W3C//DTD SVG 1.1//EN" "http://www.w3.org/Graphics/SVG/1.1/DTD/svg11.dtd">
<svg version="1.1" id="Layer_1" xmlns="http://www.w3.org/2000/svg" xmlns:xlink="http://www.w3.org/1999/xlink" x="0px" y="0px"
	 width="40px" height="13px" viewBox="0 0 40 13" enable-background="new 0 0 40 13" xml:space="preserve">
<g>
	<polygon fill="#666666" points="17.01,12.519 13.807,12.519 15.807,0.22 19.012,0.22 	"/>
	<path fill="#666666" d="M11.115,0.22L8.063,8.679L7.701,6.856v0.002l-1.434-4.17c0,0,0.188-2.213-1.202-2.213
		c0,0-0.616,1.198-1.717,1.358l2.783,10.685h3.336L14.561,0.22H11.115z"/>
	<path fill="#666666" d="M36.298,12.519h2.94L36.674,0.22h-2.576c-1.186,0-1.476,0.916-1.476,0.916l-4.776,11.383h3.338l0.667-1.827
		h4.07L36.298,12.519z M32.775,8.167l1.682-4.602l0.946,4.602H32.775z"/>
	<path fill="#666666" d="M28.096,3.178l0.458-2.642c0,0-1.41-0.536-2.88-0.536c-1.589,0-5.362,0.694-5.362,4.069
		c0,3.18,4.429,3.219,4.429,4.887s-3.972,1.371-5.282,0.318l-0.477,2.761c0,0,1.43,0.694,3.614,0.694
		c2.185,0,5.482-1.131,5.482-4.211c0-3.197-4.469-3.494-4.469-4.885C23.609,2.244,26.728,2.421,28.096,3.178z"/>
	<path fill="#BFBFBF" d="M7.701,6.858l-1.077-5.53c0,0-0.13-1.108-1.52-1.108H0.06L0,0.429c0,0,2.426,0.502,4.752,2.385
		C6.977,4.613,7.701,6.858,7.701,6.858z"/>
</g>
</svg>
